<?xml version="1.0" encoding="UTF-8"?>
<!DOCTYPE svg  PUBLIC '-//W3C//DTD SVG 1.1//EN'  'http://www.w3.org/Graphics/SVG/1.1/DTD/svg11.dtd'>
<svg width="800px" height="800px" enable-background="new 0 0 64 64" fill="#000000" version="1.0" viewBox="0 0 64 64" xml:space="preserve" xmlns="http://www.w3.org/2000/svg">





  <g fill="#394240"> <path d="M32,0C18.745,0,8,10.745,8,24c0,5.678,2.502,10.671,5.271,15l17.097,24.156C30.743,63.686,31.352,64,32,64 s1.257-0.314,1.632-0.844L50.729,39C53.375,35.438,56,29.678,56,24C56,10.745,45.255,0,32,0z M48.087,39h-0.01L32,61L15.923,39 h-0.01C13.469,35.469,10,29.799,10,24c0-12.15,9.85-22,22-22s22,9.85,22,22C54,29.799,50.281,35.781,48.087,39z"/> <path d="m32 14c-5.523 0-10 4.478-10 10s4.477 10 10 10 10-4.478 10-10-4.477-10-10-10zm0 18c-4.418 0-8-3.582-8-8s3.582-8 8-8 8 3.582 8 8-3.582 8-8 8z"/> <path d="m32 10c-7.732 0-14 6.268-14 14s6.268 14 14 14 14-6.268 14-14-6.268-14-14-14zm0 26c-6.627 0-12-5.373-12-12s5.373-12 12-12 12 5.373 12 12-5.373 12-12 12z"/> </g> <g fill="#57f755"> <path d="m32 12c-6.627 0-12 5.373-12 12s5.373 12 12 12 12-5.373 12-12-5.373-12-12-12zm0 22c-5.522 0-10-4.477-10-10s4.478-10 10-10 10 4.477 10 10-4.478 10-10 10z"/> <path d="M32,2c-12.15,0-22,9.85-22,22c0,5.799,3.469,11.469,5.913,15h0.01L32,61l16.077-22h0.01 C50.281,35.781,54,29.799,54,24C54,11.85,44.15,2,32,2z M32,38c-7.732,0-14-6.268-14-14s6.268-14,14-14s14,6.268,14,14 S39.732,38,32,38z"/> </g> <path d="m32 12c-6.627 0-12 5.373-12 12s5.373 12 12 12 12-5.373 12-12-5.373-12-12-12zm0 22c-5.522 0-10-4.477-10-10s4.478-10 10-10 10 4.477 10 10-4.478 10-10 10z" fill="#231F20" opacity=".2"/>  

</svg>
